HIERARCHY
ROOT Hips
{
    OFFSET 0.000000 0.000000 0.000000
    CHANNELS 6 Xposition Yposition Zposition Zrotation Xrotation Yrotation
    JOINT Spine
    {
        OFFSET -0.000000 0.083210 0.000000
        CHANNELS 3 Zrotation Xrotation Yrotation
        JOINT Spine1
        {
            OFFSET -0.000000 0.256334 0.000000
            CHANNELS 3 Zrotation Xrotation Yrotation
            JOINT Neck
            {
                OFFSET -0.000000 0.275576 0.002912
                CHANNELS 3 Zrotation Xrotation Yrotation
                JOINT Head
                {
                    OFFSET -0.000000 0.157287 0.020295
                    CHANNELS 3 Zrotation Xrotation Yrotation
                    End Site
                    {
                        OFFSET -0.000000 0.202951 0.000000
                    }
                }
            }
            JOINT LeftShoulder
            {
                OFFSET 0.041044 0.235234 -0.000041
                CHANNELS 3 Zrotation Xrotation Yrotation
                JOINT LeftArm
                {
                    OFFSET 0.117964 0.000000 0.000000
                    CHANNELS 3 Zrotation Xrotation Yrotation
                    JOINT LeftForeArm
                    {
                        OFFSET 0.291248 0.000000 0.000000
                        CHANNELS 3 Zrotation Xrotation Yrotation
                        JOINT LeftHand
                        {
                            OFFSET 0.245673 0.000000 0.000000
                            CHANNELS 3 Zrotation Xrotation Yrotation
                            End Site
                            {
                                OFFSET 0.152213 0.000000 0.000000
                            }
                        }
                    }
                }
            }
            JOINT RightShoulder
            {
                OFFSET -0.040052 0.235234 -0.000041
                CHANNELS 3 Zrotation Xrotation Yrotation
                JOINT RightArm
                {
                    OFFSET -0.117964 0.000000 0.000000
                    CHANNELS 3 Zrotation Xrotation Yrotation
                    JOINT RightForeArm
                    {
                        OFFSET -0.291248 0.000000 0.000000
                        CHANNELS 3 Zrotation Xrotation Yrotation
                        JOINT RightHand
                        {
                            OFFSET -0.245673 0.000000 0.000000
                            CHANNELS 3 Zrotation Xrotation Yrotation
                            End Site
                            {
                                OFFSET -0.152213 0.000000 0.000000
                            }
                        }
                    }
                }
            }
        }
    }
    JOINT LeftUpLeg
    {
        OFFSET 0.101475 0.000000 0.000000
        CHANNELS 3 Zrotation Xrotation Yrotation
        JOINT LeftLeg
        {
            OFFSET -0.000000 -0.446535 0.000000
            CHANNELS 3 Zrotation Xrotation Yrotation
            JOINT LeftFoot
            {
                OFFSET -0.000000 -0.400037 0.000000
                CHANNELS 3 Zrotation Xrotation Yrotation
                JOINT LeftToeBase
                {
                    OFFSET -0.000000 -0.065959 0.152213
                    CHANNELS 3 Zrotation Xrotation Yrotation
                    End Site
                    {
                        OFFSET -0.000000 0.000000 0.040590
                    }
                }
            }
        }
    }
    JOINT RightUpLeg
    {
        OFFSET -0.101475 0.000000 0.000000
        CHANNELS 3 Zrotation Xrotation Yrotation
        JOINT RightLeg
        {
            OFFSET -0.000000 -0.446535 0.000000
            CHANNELS 3 Zrotation Xrotation Yrotation
            JOINT RightFoot
            {
                OFFSET -0.000000 -0.400037 0.000000
                CHANNELS 3 Zrotation Xrotation Yrotation
                JOINT RightToeBase
                {
                    OFFSET -0.000000 -0.065959 0.152213
                    CHANNELS 3 Zrotation Xrotation Yrotation
                    End Site
                    {
                        OFFSET -0.000000 0.000000 0.040590
                    }
                }
            }
        }
    }
}
MOTION
Frames:    10
Frame Time:    0.008333
-1.026110    0.797705    0.059941    13.011755    -0.483070    28.775255    3.904915    14.736769    1.143059    3.525477    3.207633    0.443232    12.705034    6.336054    -10.793449    -8.474880    -18.375446    -9.040981    1.376193    3.674710    -14.570752    -55.231503    7.196064    -2.772515    44.089493    -46.118713    -86.459717    32.342007    -8.159156    -6.961594    0.849106    1.283463    29.823627    10.055451    40.235073    60.010651    -25.778534    -33.890720    100.753975    -6.486402    -2.554751    -17.327963    19.798355    -21.301041    7.824896    -4.137093    31.336428    4.162078    -24.410078    3.288455    -6.435615    0.369549    2.949308    -3.317722    -38.437645    -4.907924    -0.474883    2.962884    54.601242    2.947624    30.761019    -34.883919    -14.049215    0.056487    -1.631860    1.417708    
-1.026007    0.797732    0.058696    12.891264    -0.403107    28.723377    3.853258    14.864668    1.145273    3.443252    3.301150    0.442669    12.619762    6.449042    -10.866408    -8.429970    -18.358713    -9.117522    1.325195    3.693702    -14.649423    -55.460064    7.308979    -2.773380    44.578175    -45.915684    -85.846565    32.611637    -7.851138    -7.093837    0.748257    1.190592    29.744123    10.149473    40.396679    59.967140    -25.773333    -33.817196    100.683289    -6.453012    -2.524655    -17.272261    19.857189    -21.497318    7.862654    -4.166825    31.387083    4.221287    -24.367062    3.302786    -6.398762    0.370238    2.961544    -3.320764    -38.419731    -5.114655    -0.553512    2.938876    54.569569    2.987346    30.762987    -34.801350    -14.078297    0.056258    -1.601519    1.421374    
-1.025888    0.797735    0.057490    12.775242    -0.330220    28.674335    3.820684    15.004803    1.148218    3.301425    3.403760    0.444954    12.543707    6.562330    -10.931524    -8.346550    -18.358646    -9.184258    1.225505    3.822412    -14.695900    -55.556061    7.472201    -2.860559    44.849518    -45.897076    -85.436996    32.778610    -7.858984    -7.097153    0.680509    1.202888    29.655270    10.186606    40.425335    59.952232    -25.734377    -33.667526    100.648071    -6.708289    -2.381286    -17.261732    19.918650    -21.685320    7.940113    -4.176198    31.442995    4.232285    -24.321426    3.319619    -6.363493    0.370166    2.967053    -3.318702    -38.404396    -5.307904    -0.619875    2.928026    54.535130    3.009490    30.776440    -34.718014    -14.095245    0.056344    -1.584070    1.429057    
-1.025745    0.797730    0.056309    12.665620    -0.270403    28.623274    3.708292    15.196446    1.241275    3.241296    3.451766    0.473530    12.547367    6.652737    -11.055119    -8.345553    -18.329355    -9.299351    1.169172    3.724038    -14.861680    -55.842499    7.658185    -2.738529    44.994141    -45.789680    -85.166962    33.007214    -7.806061    -7.185816    0.596979    1.229003    29.427971    10.202196    40.463264    59.947968    -25.652695    -33.528614    100.677658    -6.843810    -2.283444    -17.335155    19.985826    -21.855457    8.028559    -4.191889    31.500252    4.224825    -24.272226    3.328623    -6.321979    0.370488    2.970472    -3.320705    -38.387215    -5.487007    -0.674000    2.912847    54.497353    3.042435    30.794264    -34.638565    -14.112837    0.055970    -1.565964    1.425259    
-1.025583    0.797749    0.055091    12.551800    -0.207875    28.588631    3.703105    15.404985    1.190825    3.050390    3.396502    0.465848    12.441772    7.052903    -11.125906    -8.216421    -18.484896    -9.356704    0.886549    4.129192    -14.905627    -55.667511    7.736612    -2.895352    45.381645    -45.777287    -84.590988    33.018051    -7.822576    -7.202740    0.621119    1.349257    29.490294    10.287213    40.521675    59.743889    -25.531824    -33.366276    100.684914    -6.760141    -2.266063    -17.284023    20.042805    -22.037384    8.089370    -4.207619    31.552219    4.246502    -24.211082    3.347682    -6.293748    0.369947    2.976929    -3.314203    -38.370613    -5.654757    -0.722640    2.929543    54.447639    3.043622    30.798456    -34.554996    -14.146941    0.055683    -1.542581    1.425371    
-1.025476    0.797755    0.053897    12.434593    -0.152015    28.567213    3.653433    15.568369    1.181269    2.895882    3.488476    0.464544    12.368212    7.245352    -11.188198    -8.102802    -18.530243    -9.414146    0.734908    4.311281    -14.954777    -55.668407    7.885322    -3.005315    45.649769    -45.708618    -84.149216    33.281647    -7.814534    -7.241969    0.587035    1.416154    29.432175    10.290291    40.513748    59.675728    -25.462725    -33.248951    100.653999    -6.798255    -2.234953    -17.255714    20.107523    -22.222471    8.158169    -4.216147    31.608524    4.251286    -24.150982    3.365413    -6.273462    0.369417    2.983023    -3.307898    -38.340164    -5.811820    -0.763131    2.958648    54.402115    2.997023    30.806860    -34.463032    -14.160909    0.055401    -1.523549    1.424179    
-1.025362    0.797792    0.052691    12.321661    -0.089886    28.545155    3.592448    15.752738    1.190170    2.738888    3.562741    0.469591    12.292929    7.410026    -11.265947    -8.023845    -18.558987    -9.491174    0.586353    4.577068    -14.957314    -55.632195    8.031723    -3.226660    45.939857    -45.657993    -83.677452    33.386700    -7.804763    -7.219859    0.538155    1.299934    29.329920    10.523889    40.639889    59.514698    -25.445887    -33.070267    100.608124    -6.415120    -2.129514    -17.271387    20.163509    -22.404993    8.225226    -4.227991    31.655685    4.242036    -24.086344    3.367717    -6.232632    0.369775    3.005371    -3.305400    -38.316677    -5.971796    -0.814974    2.975788    54.353523    2.987145    30.807209    -34.379868    -14.201539    0.055184    -1.508506    1.423415    
-1.025217    0.797852    0.051475    12.208936    -0.020002    28.539448    3.510293    15.912991    1.193504    2.616443    3.674461    0.469843    12.169507    7.572214    -11.330914    -7.914377    -18.613337    -9.565907    0.425053    4.695259    -15.093726    -55.674461    8.205187    -3.213682    46.609680    -45.555038    -82.990044    33.671040    -7.382549    -6.924546    0.463441    1.241510    29.222893    10.792435    40.556908    59.351337    -25.047985    -32.550488    100.827797    -7.135843    -1.812333    -17.314459    20.206005    -22.595688    8.305790    -4.215787    31.699083    4.194352    -24.011021    3.357676    -6.190341    0.374463    3.035828    -3.339436    -38.301121    -6.120820    -0.876667    3.006173    54.295765    2.967810    30.792645    -34.297867    -14.250985    0.054551    -1.483343    1.415078    
-1.025074    0.797928    0.050296    12.092386    0.044206    28.526793    3.434707    16.056738    1.190068    2.429436    3.792492    0.470081    12.237790    7.746499    -11.397357    -8.010607    -18.649178    -9.608382    0.429764    4.655420    -15.202622    -55.961952    8.508939    -3.139100    47.152836    -45.557606    -82.243912    33.643963    -7.422395    -7.026560    0.434895    1.249234    29.206169    10.680133    40.709049    59.337696    -25.220699    -32.657627    100.573441    -7.024145    -1.869413    -17.338043    20.261667    -22.768688    8.420069    -4.199778    31.726665    4.119583    -23.949286    3.351617    -6.145668    0.375389    3.066420    -3.339836    -38.275925    -6.270166    -0.929584    3.038918    54.236046    2.970410    30.762751    -34.228271    -14.332688    0.053940    -1.464053    1.405367    
-1.024950    0.798001    0.049082    11.959153    0.112244    28.513432    3.358414    16.244246    1.204343    2.282755    3.875718    0.476399    12.026932    7.923635    -11.426705    -7.710610    -18.684729    -9.654307    0.393697    4.619377    -15.297976    -56.191261    8.698175    -3.042903    47.230934    -45.439972    -81.986664    34.174706    -7.425519    -7.023356    0.367861    1.210255    29.079773    10.701062    40.790947    59.349609    -25.151087    -32.532547    100.537560    -6.980640    -1.842026    -17.362503    20.339380    -22.947250    8.503824    -4.220008    31.736094    4.132672    -23.879301    3.375971    -6.137335    0.375576    3.085585    -3.336591    -38.236076    -6.429669    -0.969739    3.092408    54.169994    2.904349    30.760624    -34.132973    -14.378929    0.053599    -1.442067    1.403495    
